<?xml version="1.0" standalone="no"?>
<!DOCTYPE svg PUBLIC "-//W3C//DTD SVG 20010904//EN"
 "http://www.w3.org/TR/2001/REC-SVG-20010904/DTD/svg10.dtd">
<svg version="1.0" xmlns="http://www.w3.org/2000/svg"
 width="512.000000pt" height="512.000000pt" viewBox="0 0 512.000000 512.000000"
 preserveAspectRatio="xMidYMid meet">
<metadata>
Created by potrace 1.14, written by Peter Selinger 2001-2017
</metadata>
<g transform="translate(0.000000,512.000000) scale(0.100000,-0.100000)"
fill="#000000" stroke="none">
<path d="M1710 4011 c-338 -88 -579 -331 -636 -641 -10 -54 -12 -240 -3 -280
4 -19 10 -48 13 -63 25 -141 126 -315 234 -403 94 -77 150 -98 263 -99 93 0
98 1 183 43 186 92 350 306 435 566 33 100 59 202 67 256 3 19 7 49 11 65 9
48 12 85 14 177 3 172 -46 287 -152 353 -96 61 -257 71 -429 26z"/>
<path d="M4982 3490 c-110 -63 -203 -188 -237 -316 -20 -76 -20 -203 -1 -277
23 -85 76 -190 159 -313 74 -111 101 -163 103 -199 2 -74 -123 -175 -282 -225
-79 -25 -284 -36 -369 -19 -27 5 -63 12 -80 15 -55 9 -67 15 -61 31 4 8 6 50
6 92 1 160 -25 271 -96 414 -85 171 -237 335 -429 464 -176 117 -470 234 -675
268 -19 3 -42 8 -50 10 -57 17 -244 30 -423 30 -187 0 -181 2 -192 -72 -3 -24
-13 -68 -20 -98 -8 -29 -16 -64 -19 -77 -7 -38 -62 -189 -94 -259 -173 -374
-486 -594 -749 -525 -157 42 -303 173 -394 353 -26 52 -39 69 -46 60 -12 -15
-2 3 -328 -587 -288 -522 -275 -499 -303 -550 -13 -25 -50 -90 -81 -145 -30
-55 -63 -113 -71 -129 -15 -27 -21 -29 -76 -30 -75 -1 -124 -30 -153 -90 -25
-51 -26 -84 -6 -133 21 -49 42 -71 84 -89 71 -30 144 -11 197 49 29 33 33 35
85 32 30 -2 187 -6 349 -9 272 -6 412 -9 935 -21 1002 -22 955 -22 1085 -12
186 14 442 66 565 117 11 4 52 20 90 36 275 110 510 291 654 505 52 77 121
219 121 249 0 12 52 10 125 -5 63 -14 204 -20 285 -13 102 9 228 45 313 90 70
37 181 140 197 184 19 48 23 111 10 151 -15 45 -100 193 -112 193 -4 0 -8 4
-8 10 0 5 -20 40 -44 77 -71 112 -99 193 -102 297 -2 101 16 168 68 249 28 43
124 127 160 139 9 3 8 16 -6 51 -10 26 -21 49 -25 51 -4 3 -30 -8 -59 -24z
m-3638 -1284 c58 -27 94 -64 129 -130 31 -58 31 -174 -1 -233 -91 -174 -313
-211 -444 -76 -175 181 -41 480 210 467 30 -2 75 -13 106 -28z"/>
<path d="M1151 2097 c-19 -6 -52 -28 -72 -50 -110 -112 -12 -296 145 -273 84
13 150 101 136 185 -4 30 -7 32 -18 19 -54 -66 -170 4 -156 93 4 22 5 39 3 38
-2 -1 -20 -6 -38 -12z"/>
</g>
</svg>
