<?xml version="1.0" standalone="no"?>
<!DOCTYPE svg PUBLIC "-//W3C//DTD SVG 20010904//EN"
 "http://www.w3.org/TR/2001/REC-SVG-20010904/DTD/svg10.dtd">
<svg version="1.0" xmlns="http://www.w3.org/2000/svg"
 width="256.000000pt" height="256.000000pt" viewBox="0 0 256.000000 256.000000"
 preserveAspectRatio="xMidYMid meet">

<g transform="translate(0.000000,256.000000) scale(0.100000,-0.100000)"
fill="#000000" stroke="none">
<path d="M840 2001 c-86 -28 -139 -59 -195 -115 -111 -111 -143 -273 -85 -429
45 -121 146 -204 239 -195 145 14 268 160 322 383 27 110 30 236 7 280 -48 90
-156 119 -288 76z"/>
<path d="M2472 1731 c-82 -60 -124 -165 -103 -261 12 -58 34 -103 92 -192 54
-84 51 -112 -14 -155 -27 -18 -67 -38 -90 -44 -43 -12 -158 -13 -212 -3 l-32
6 -5 88 c-5 75 -11 99 -43 166 -73 152 -236 281 -434 343 -124 39 -200 51
-336 51 l-110 0 -22 -93 c-58 -238 -201 -408 -358 -424 -46 -5 -63 -1 -109 21
-62 30 -139 109 -158 162 -13 38 -23 43 -33 17 -3 -10 -92 -174 -197 -364
l-192 -347 -35 0 c-71 0 -105 -83 -56 -136 31 -33 74 -34 112 -2 l28 24 579
-13 c361 -8 612 -10 665 -4 305 31 565 188 658 395 20 47 32 62 43 58 33 -13
188 -16 241 -5 71 15 156 65 187 111 34 50 25 92 -38 190 -83 130 -98 203 -61
285 17 39 72 95 92 95 13 0 11 23 -4 44 -12 16 -15 15 -55 -13z m-1786 -636
c57 -37 80 -116 49 -175 -67 -129 -257 -86 -259 58 -2 110 118 177 210 117z"/>
<path d="M546 1029 c-35 -27 -36 -86 -3 -117 34 -32 89 -30 116 4 12 15 21 36
21 48 0 19 -5 21 -34 18 -27 -3 -37 0 -46 18 -6 12 -9 28 -6 36 8 21 -17 17
-48 -7z"/>
</g>
</svg>
